<?xml version="1.0" encoding="UTF-8"?>
<svg id="Layer_1" data-name="Layer 1" xmlns="http://www.w3.org/2000/svg" version="1.1" viewBox="0 0 720 720">
  <defs>
    <style>
      .cls-1 {
        fill: #fff;
        stroke-width: 0px;
      }
    </style>
  </defs>
  <path class="cls-1" d="M439.3,360.7c14.1,0,29.7-20,35-44.8,5.3-24.7-1.9-44.8-15.9-44.8s-29.7,20-35,44.8c-5.3,24.7,1.9,44.8,15.9,44.8Z"/>
  <path class="cls-1" d="M250.8,360.7c14.1,0,29.7-20,35-44.8,5.3-24.7-1.9-44.8-15.9-44.8s-29.7,20-35,44.8c-5.3,24.7,1.9,44.8,15.9,44.8Z"/>
  <path class="cls-1" d="M127.5,440.3c9.6,3.7,12.1,3.4,17.1,3.5,4.5,0,7.1-.4,9.6-1.6,4.9-2.5,7.3-7.4,8.7-11,14.2-37.2,87.2-246.1,87.2-246.1,6.4-19.5,19.5-41,27.5-40.4,8,.6,17.7,22.9,21.1,40.2,6.4,32.6,9.6,48.9,37.4,249.9.5,3.2,1.8,17.9-3.5,24.4-3.8,4.7-15.4,6.8-17.7,7.5-2.9,1-6.7,1.6-14.4,2.7-5.3.7-8.2.8-10.2,3-2,2.1-2.1,5-2.1,8.6,0,13.9,0,15.5,2.3,18.6,4.6,6.1,13.8,6.2,19.5,6.4,36.8.7,73.7-1.2,110.5-.8,3.3,0,5.7.2,12.5-4.7,2.5-1.8,6.2-5.3,9.9-15.1,3.3-8.5,4-10.3,5.3-33.2,1.3-23.3.7-26.4-2.1-29-4.2-3.8-1.9-3.3-18.7-2.2-.6,0-2,.1-3.3,1.1-1.5,1.1-2.1,2.7-2.5,3.9-2,7.2,2.6,23.7-5.2,31-11,10.4-19.5,8.2-20.8,8.2-4.5-.1-20.3-5.4-23.5-27.1-17-114.3-34.2-222.3-51.2-336.5-.1-1.4-.3-5.7,2.5-9.9,4.1-6.1,11.2-6.6,12.1-6.6,1.2-.2,3.5-.7,5.7-2.5,3.8-3.1,4.2-7.6,4.2-8.4.2-6.3.3-7.2.5-13.5,0-.4.8-5.8-3.3-9.3-2.6-2.3-5.7-2.4-6.6-2.4-33.7-.8-67.5-1.7-101.2-2.5-.9,0-4.3-.3-7.5,2-2.4,1.7-3.4,4-3.8,4.9-3.1,8.5-4,10.2-4.2,14.9-.2,4.8.3,6.8,1.3,8.3,4.1,6.1,14.4,6,15.8,5.8,2.9,0,4.6.9,5.4,1.5,4.2,3,6.1,9,2.8,16.7-67.3,181.5-119.6,310.8-122.6,321.3-.7,2.6-2.9,9.8.8,14.8,1.4,1.9,3.2,3.1,4.6,3.7h0Z"/>
  <path class="cls-1" d="M598.8,327.8c-.7-.8-3.7-4.2-3.7-9.6,0-4.9,2.8-8.5,3.5-9.4,6.7-9.2,68.5-76,68.5-149.6s-24.4-87.1-55.2-104.7c-62.1-35.4-123.7-23-139.2-18.1-5.1,1.6-34.1,7.4-62.6,38.4-9.6,10.5-28.7,29.7-27.5,81.5.2,10.1,3.9,26.1,13.6,40.1,19.4,28.2,52.8,39.2,84.2,26.4,38.9-15.9,44.9-51.2,46.4-56.4.6-1.3,3.4-19.5-.6-31.4-5.5-16.1-26.5-15.6-37.5-7.3-15.9,12.1-2.3,37.9-16.7,54.3-11.7,13.3-36,14.7-46.3-4.6-12.9-23.9-2.7-51.7,1.5-59.9,18.9-36.6,57-45.2,64-46.5,43.8-8.1,106.9,6,126.2,47.4,30.2,64.5-30.1,148.6-70.3,176.4-4.7,3.2-20.7,12.9-20,26.3.5,9.9,7.8,16.7,23.3,29.7,0,0,18.2,14.2,35.1,43.3,19,32.7,21.6,79.7,4.7,124.6-20.9,55.5-74.2,84.7-100.8,98.3-50.6,25.9-96.8,26-124.4,25.7-61.8-.6-105.1-20.2-113.6-24.2-29.3-13.6-61-35.5-78.2-74.5-7-15.9-11.5-34.1-9.1-51.3.7-4.9,1.2-11.5-6.5-16.3-4.4-2.7-9.3-3.8-19.6-6.6-12.6-3.4-25.8-5.1-34.7-6-6.6-.7-11.4-1.2-25-.3-6.5.4-13.7,2.9-18.3,6.3-6.6,4.9-9.2,11.1-5.5,19,1.5,3.2,5.8,7.3,13.9,9.3,23.3,5.8,25.6,4,36.4,11.4,10.7,7.3,17.4,26.6,19.7,33.6,20.8,62.6,64.2,93.4,71.5,98.9,46.1,34.1,93.8,40.1,135.1,45,49.6,5.9,87.3-.1,99-2.2,8.6-1.6,45.8-10.1,81.6-26.2,91.9-41.3,150-125.4,145.5-212.4-3.3-62.5-41.8-101.4-58.7-118.4h0Z"/>
</svg>