<svg width="720" height="720" viewBox="0 0 720 720" fill="none" xmlns="http://www.w3.org/2000/svg">
<path d="M419.26 360.53C429.86 360.53 441.66 345.42 445.63 326.77C449.59 308.12 444.21 293.01 433.62 293.01C423.03 293.01 411.22 308.12 407.25 326.77C403.29 345.42 408.67 360.53 419.26 360.53Z" fill="#4B392E"/>
<path d="M277.14 360.53C287.74 360.53 299.54 345.42 303.51 326.77C307.47 308.12 302.09 293.01 291.5 293.01C280.91 293.01 269.1 308.12 265.13 326.77C261.17 345.42 266.55 360.53 277.14 360.53Z" fill="#4B392E"/>
<path d="M184.19 420.52C191.4 423.29 193.3 423.06 197.11 423.14C200.48 423.21 202.46 422.86 204.31 421.9C207.99 419.99 209.82 416.34 210.85 413.64C221.58 385.57 276.59 228.12 276.59 228.12C281.39 213.41 291.27 197.22 297.31 197.65C303.36 198.08 310.68 214.95 313.23 227.99C318.03 252.55 320.43 264.83 341.4 416.39C341.74 418.82 342.78 429.87 338.79 434.81C335.92 438.37 327.18 439.92 325.46 440.49C323.28 441.21 320.41 441.73 314.63 442.49C310.6 443.02 308.48 443.06 306.91 444.73C305.39 446.35 305.31 448.52 305.31 451.25C305.29 461.75 305.28 462.96 307.03 465.26C310.52 469.85 317.45 469.96 321.73 470.05C349.5 470.6 377.27 469.18 405.04 469.46C407.52 469.49 409.36 469.61 414.49 465.88C416.41 464.49 419.16 461.87 421.99 454.51C424.45 448.13 424.97 446.76 425.95 429.48C426.95 411.95 426.48 409.56 424.39 407.62C421.25 404.72 422.98 405.12 410.28 405.93C409.83 405.96 408.79 406.04 407.82 406.73C406.7 407.53 406.22 408.76 405.97 409.7C404.49 415.16 407.9 427.58 402.08 433.07C393.76 440.91 387.37 439.25 386.39 439.22C383.03 439.12 371.08 435.16 368.65 418.79C355.87 332.64 342.85 251.21 330.06 165.06C329.97 164.01 329.83 160.74 331.96 157.61C335.07 153.04 340.39 152.65 341.05 152.61C341.92 152.48 343.67 152.1 345.31 150.76C348.15 148.43 348.45 145.05 348.49 144.4C348.61 139.65 348.73 138.95 348.84 134.2C348.89 133.89 349.42 129.81 346.38 127.16C344.41 125.45 342.11 125.36 341.43 125.36C316 124.73 290.57 124.1 265.14 123.46C264.43 123.4 261.87 123.26 259.47 125C257.66 126.3 256.87 127.99 256.58 128.73C254.24 135.11 253.6 136.39 253.44 140C253.28 143.65 253.63 145.1 254.41 146.27C257.47 150.88 265.29 150.76 266.31 150.61C268.48 150.57 269.77 151.28 270.41 151.74C273.56 153.98 275.04 158.5 272.53 164.35C221.78 301.17 182.35 398.64 180.08 406.55C179.52 408.51 177.89 413.94 180.7 417.72C181.78 419.17 183.14 420.02 184.18 420.52H184.19Z" fill="#4B392E"/>
<path d="M539.5 335.76C538.97 335.17 536.72 332.57 536.71 328.55C536.69 324.89 538.8 322.16 539.32 321.45C544.4 314.49 590.98 264.12 590.98 208.69C590.98 171.6 572.62 143.02 549.35 129.76C502.55 103.08 456.06 112.43 444.41 116.11C440.54 117.33 418.68 121.72 397.25 145.05C390 152.94 375.6 167.46 376.54 206.52C376.72 214.13 379.49 226.17 386.78 236.73C401.44 257.96 426.56 266.29 450.26 256.63C479.57 244.68 484.13 218.06 485.22 214.08C485.66 213.13 487.78 199.36 484.73 190.39C480.6 178.24 464.76 178.61 456.47 184.92C444.46 194.05 454.77 213.47 443.86 225.85C435.03 235.86 416.75 236.95 408.94 222.41C399.25 204.39 406.88 183.43 410.08 177.24C424.32 149.68 453.05 143.16 458.31 142.19C491.35 136.09 538.89 146.74 553.46 177.9C576.22 226.56 530.76 289.95 500.47 310.86C496.96 313.28 484.9 320.59 485.42 330.71C485.81 338.21 491.28 343.27 503.01 353.08C503.01 353.08 516.71 363.77 529.48 385.74C543.82 410.4 545.8 445.84 533.05 479.68C517.29 521.51 477.09 543.55 457.08 553.81C418.93 573.37 384.09 573.42 363.31 573.2C316.68 572.71 284.1 557.97 277.66 554.97C255.58 544.68 231.65 528.2 218.7 498.81C213.43 486.84 210.01 473.12 211.85 460.17C212.37 456.51 212.79 451.47 206.96 447.88C203.62 445.83 199.95 445.02 192.19 442.91C182.7 440.32 172.72 439.07 166.04 438.36C161.07 437.84 157.48 437.44 147.18 438.13C142.27 438.46 136.87 440.35 133.4 442.91C128.43 446.57 126.5 451.29 129.28 457.22C130.4 459.62 133.64 462.69 139.79 464.24C157.32 468.65 159.1 467.28 167.26 472.82C175.33 478.3 180.35 492.88 182.09 498.12C197.8 545.34 230.48 568.56 236.02 572.65C270.78 598.35 306.75 602.88 337.88 606.61C375.29 611.09 403.71 606.51 412.52 604.93C419.03 603.76 447.04 597.29 474.07 585.15C543.37 554.02 587.19 490.62 583.76 425.03C581.29 377.89 552.25 348.55 539.49 335.77L539.5 335.76Z" fill="#4B392E"/>
</svg>
