<?xml version="1.0" encoding="UTF-8"?>
<svg id="Layer_1" data-name="Layer 1" xmlns="http://www.w3.org/2000/svg" version="1.1" viewBox="0 0 288 288">
  <defs>
    <style>
      .cls-1 {
        fill: #9eace0;
        stroke-width: 0px;
      }
    </style>
  </defs>
  <path class="cls-1" d="M162.2,144.8c3.4,0,7.1-4.8,8.4-10.7,1.3-5.9-.5-10.7-3.8-10.7s-7.1,4.8-8.4,10.7c-1.3,5.9.5,10.7,3.8,10.7Z"/>
  <path class="cls-1" d="M117.6,144.8c3.4,0,7.1-4.8,8.4-10.7,1.3-5.9-.5-10.7-3.8-10.7s-7.1,4.8-8.4,10.7c-1.3,5.9.5,10.7,3.8,10.7Z"/>
  <path class="cls-1" d="M87.5,163.9c2.3.9,4.2.8,5.4.8,1.1,0,1.7,0,2.3-.4,1.2-.6,1.8-1.8,2.1-2.6,3.4-8.9,20.9-59,20.9-59,1.5-4.7,3.4-9.8,5.3-9.7,1.9.1,3,5.5,3.8,9.6,1.5,7.8,2.3,11.7,9,59.9.1.8.4,3-.8,4.6-.9,1.1-2.4,1.6-3,1.8-.7.2-1.6.4-3.4.6-1.3.2-2,.2-2.5.7-.5.5-.5,1.2-.5,2.1,0,3.3,0,5,.5,5.7,1.1,1.5,3.3,1.5,4.7,1.5,8.8.2,17.7-.3,26.5-.2.8,0,2.7,0,4.3-1.1.6-.4,1.5-1.3,2.4-3.6.8-2,.9-3.8,1.3-9.2.3-5.6.2-6.3-.5-7-1-.9-3-.8-7.1-.5-.1,0-.5,0-.8.3-.4.3-.5.6-.6.9-.5,1.7,0,5.4-1.2,7.4-1.1,1.7-3.4,2-3.7,2-1.1,0-4.9,0-5.6-5.2-4.1-27.4-8.2-53.3-12.3-80.7,0-.3,0-1.4.6-2.4,1-1.5,2.7-1.6,2.9-1.6.3,0,.8-.2,1.4-.6.9-.7,1-1.8,1-2,0-1.5,0-3,.1-4.5,0,0,.2-1.4-.8-2.2-.6-.5-1.4-.6-1.6-.6-8.1-.2-16.2-.4-24.3-.6-.2,0-1,0-1.8.5-.6.4-.8,1-.9,1.2-.7,2-.9,3.7-1,4.9,0,1.2,0,1.6.3,2,1,1.5,3.5,1.4,3.8,1.4.7,0,1.1.2,1.3.4,1,.7,1.5,2.1.7,4-16.1,43.5-28.7,74.5-29.4,77-.2.6-.7,2.4.2,3.6.3.5.8.7,1.1.9Z"/>
  <path class="cls-1" d="M201.7,136.9c-.2-.2-.9-1-.9-2.3,0-1.2.7-2,.8-2.3,1.6-2.2,16.4-17.2,16.8-34.8.3-14.1-5.5-24.4-14.3-29.2-15.1-8.2-29.8-4.8-33.5-3.6-3.2,1.1-11.3,3.7-17.6,11.5-2.1,2.7-7,10.7-7,19.6,0,2.4,0,7.7,3.5,12.2,5.1,6.5,15,8.1,22.5,5,9.3-3.8,12.1-13.6,12.4-14.8.1-.3,1.9-4.4-.2-7.5-2.2-3.4-7.6-3.7-10.3-1.7-3.8,2.9-.5,9.1-4,13-2.8,3.2-7.8,3-11.1-1.1-3.9-4.8,0-12.4,1-14.4,4.5-8.8,14-11.3,15.7-11.8,12-3.3,25,1.6,29.6,11.5,7.2,15.5-10.1,36.1-19.7,42.8-1.1.8-5,3.1-4.8,6.3.1,2.4,1.9,4,5.6,7.1,0,0,5.6,3.4,9.7,10.4,4.6,7.8,5.2,19.1,1.1,29.9-5,13.3-16.5,19-22.9,22.3-12.1,6.2-23.2,6.2-29.8,6.2-14.8-.2-25.2-4.8-27.2-5.8-7-3.3-14.6-7.2-18.8-16.6-1.7-3.8-1.9-8.1-2.2-12.3,0-1.2-.2-3.3-1.7-4.9-.8-.9-2.1-1.2-4.6-1.9-3-.8-5.4-1.2-8.3-1.4-2.9-.3-2.8-.2-6,0-2.2.1-3.4.6-4.4,1.5-1.8,1.7-2.3,5-1.1,7.1.4.7,1.1,1.4,3.1,2.2,5.3,2.3,4.9,1,7.5,2.7,2.6,1.7,2.9,5.1,3.4,6.8,5,15,18,22.7,19.7,24,11.1,8.2,22.5,10.6,32.4,11.8,11.9,1.4,20.9,0,23.7-.5,2.1-.4,11-2.4,19.6-6.3,22-9.9,37.3-31.4,36.2-52.2-.8-15-10-24.3-14.1-28.4Z"/>
</svg>